<?xml version="1.0" encoding="UTF-8"?>
<svg xmlns="http://www.w3.org/2000/svg" viewBox="0 0 431.94 391.58">
  <defs>
    <style>
      .cls-1 {
        fill: #046285;
      }

      .cls-1, .cls-2, .cls-3, .cls-4 {
        mix-blend-mode: multiply;
      }

      .cls-5 {
        isolation: isolate;
      }

      .cls-2 {
        fill: #5d7c36;
      }

      .cls-3 {
        fill: #901c55;
      }

      .cls-4 {
        fill: #5c5a5a;
      }
    </style>
  </defs>
  <g class="cls-5">
    <g id="Layer_4" data-name="Layer 4">
      <path d="M431.91,378.12c-3.54-6.29-10.86-10.23-16.75-14.21-15.8-10.39-33.6-21.13-47.71-33.61,1.17-3.4,11.78,3.25,13.08-.58-14.98-12.24-23.18,7.15-27.69-27.01-3.74-19.37-13.38-37.37-14.16-57.3,3.4,7.74,5.55,18.51,9.03,26.75,5.24,14.38,10.56,29.73,23.98,38.02,2.51,1.91,4.92,3.86,6.39,6.67,1.56,2.21,1.5,6.38,4.17,6.2,1.92-1.38.49-4.87,2.38-6.31,6.04-3.75,15.68,7.86,16.22,4.2-.92-9.88-13.36-6.97-18.39-10.52,4.6-2.59,10.84-3.9,14.46-8.18,2.93-3.24,1.18-5.73-2.95-2.53-29.76,23.55-40.29-30.96-47.3-50.23,4.56,9.82,11.84,21.67,20.77,29.36,3.39,2.31,4.1,6.66,4.75,10.24.57,2.28,2.46,1.33,2.92-.38,1.01-5.95,2.83-8.92,7.79-12.09,2.25-4.54-6.38-.66-8.43-1.27-2.73-.2-5.17-2.92-6.99-5.08-2.99-4.13,14.2,2.31,16.68-8.75.28-4.94-8.84,5.86-14.33,3.01-13.33-2.07-17.4-16.49-20.73-27.69.26-1.22-2.84-6.98.04-5.66,3.43,3.33,6.95,7.56,9.69,11.58,3.03,5.13,4.49,11.81,10,15.08,1.38.84,3.59,1.19,3.28-.77-.05-2.59-9.24-8.23-2.43-8.95,2.53.43,9.31-4.15,4.69-5.24-1.73.09-3.61,1.02-5.36.4-2.47-.94-13.96-12.96-12.9-15.7,13,3.84,25.6,14.66,33.19,25.94,7.08,15.28,4.95,26.86,21.81,36.66,4.07,2.95,7.56,5.81,11.75,8,5.18,2.15,3.54-2.73.12-4.47-25.41-16.77-19.97-15.8-29.74-41.38-8.73-13.12-4.05-8.88,6.73-13.33,7.88-6.61-6.29-1.98-9.31-1.62-2.27.86-12.46-1.35-9.84-4.03,2.11-1.13,7.35-.51,7.22-3.55-5.55-3.32-14.54,2.06-19.62-3.71-1.13-1.08,0-1.18,1.23-1.29,5.93-.03,12.44-1.19,17.95-3.63,4.25-1.58,7.66-5.19,12.44-4.93,6.26.5,17.16-1.06,18.27-8.09-1.79-2.05-4.87,1.37-6.85,2.1-2.43,1.58-10.09,3.08-11.04.95-.39-1.48,1.06-2.7,1.7-4,3.3-7.61-5.34-.66-6.99,1.8-6.75,6.8-16.44,9.83-26.06,9.55-18.68-1.11-22.81-8.85-31.13-21.95-9.49-10.11-13.77-26.54-28.66-30.35-7.49-1.66,15.79-6.87,18.98-.53,7.67,6.55,9.54,16.56,14.56,24.75,4.54,6.93,11.65,12.22,14.89,19.82,4.48,1.69.22-6.93,2.48-7.94,11.15.42,3.88-4.2-2.11-5.75-4.72-1.63-7.82-5.62-10.29-9.7-1.96-3.56,10.31,6.82,13.64,6.88,7.36,1.97,13.94,2.64,17.09,10.6,1.13,2.14,5.39,7.4,5.58,2.44-1.3-4.77-9.06-12.1,2-9.83,2.77.43,11.58,4.14,8.15-1.05-5.35-3.07-11.82-5.14-17.76-5.73-1.9-.22-12.67.14-10.49-2.93,1.31-.85,6.94-2.79,4.5-4.88-4.32-1.2-9.35,3.57-13.81,1.87-7.45-3.66-12.65-12.77-17.11-19.28-.4-6.03,9.13-5,12.82-3.07,21.77,7.25,44.83,39.4,68.69,28.15,1.09-6.04-14.77-2.58-17.96-5.09-1.24-.57-14.88-5.61-9.73-7.41,2.08-.89,9.28-1.03,7.4-4.39-4.09-1.83-11.15,1.81-15.19.81-8.42-3.01-14.65-9.87-22.73-13.74-6.2-5.84,26.51.83,29.1,1.03,8.64.09,17.31,11.07,25.68,6.36-.6-4.45-14.39-2.95-14.37-8.33,1.05-3.23,7.05-7.69,3.24-10.84-3.48-.77-5.42,4.09-8.4,5.29-9.52,3.45-20.33-2.11-30.22-2.17.95-6.17,21.37-1.03,23.91-9.01-2.44-3.8-15.24,5.25-16.8-.14.28-1.56,2.4-5.51-.64-4.9-8,5.94-15.73,12.93-26.6,13.07-4.74,1.27-9.8-5.23-5.87-8.69,19.36-6.74,41.19-8.87,61.13-2.61,4.19.79,5.15-3.61,1.55-5.15-3.49-2.54-12.12-2.54-14.88-4.65.63-2.25,7.75-4.7,3.9-6.72-11.68,4.17-11.97,7.13-26.2,7.3-1.97-.76-30.58,7.6-25.59,3.3,2.47-1.64,7.04-2.7,9.89-4.14,3.43-1.72,2.6-4.25-1.06-3.51-4.94,1.96-11.68,2.56-15.53,6.02-2.87,4.18-4.79,9.34-9.75,11.48-6.57,3.65-1.72-6.41-.24-9.11,2.63-4.8,8.2-6.64,11.78-10.53,13.24-16.05,38.87,2.22,52.16-12.42-2.07-3.47-8.44,1.74-11.84,1.62-10.38,1.3-21.3-1.16-31.54-.05,4.28-8.12,16.6-6.97,24.5-6.12,3.16.29,13.08-.89,9.84-4.86-12.39,1.93-17.75-.68-4.64-8.34,2.46-2-.22-3.57-3.05-2.42-4.4,1.25-7.03,5.36-10.71,7.73-5.03,2.02-11.44,1.78-16.1,5.41-5.32,3.09-7.81,8.45-11,12.88-2.88,4.3-11.64,10.71-9.16.87,1.94-10.17,7.38-18.46,14.48-25.63,9.4-10.98,23.53,2.01,38.58-13.84,4.99-7.27-3.21-3.19-6-.18-4.1,2.94-9.76,4.92-14.6,5.3-19.21,1.57,8.1-9.55,2.83-13.3-6.58,1.33-3.68-2.47-4.37-6.91-2.42-5.78-4.38,3.96-4.52,6.33-.64,3.56-2.66,5.75-5.49,8.05-11.12,8.01-10.27,18.2-21.12,5.19-1.14-.83-2.09-.97-2.62-.59-1.1,8.31,11.96,7.53,2.48,19.27-2.21,4.61-3.49,4.2-4.81-.37-1.77-10.67-18.41-16.45-9.61-21.66,13.1-9.44,30.18-18.26,15.73-36.1-1.12-.52-1.83.12-1.73,1.55,8.56,18.97-4.73,22.04-17.43,32.09-9.83,8.27-1.68-13.46-10.25-22.59-6.46-7.97-4.27-19.81-11.36-27.36-9.22-6.7-1.22,5.13.27,8.11,2.07,8.48,4.12,17.23,9.43,24.54,6.82,20.23.02,17.59-11.15,4.68-4.25-3.86-7.19-8.75-10.87-13.11-7.93-4.92.19,7.3,1.72,9.24,2.32,4.03-1.03,4.24-4.57,3.18-4.06-.88-7.76-4.85-10.89-6.67-1.21-.53-2.38-.18-1.99,1.48,2.03,5.53,9.1,8.65,14.46,9.75,11.68-.21,18.23,12.42,27.18,17.75,17.47,11.58-11.94,3.18-17.17.31-5.68-1.25-2.35,3.48.67,4.48,7.23,3.48,15.26,5.21,23.2,5.36,4.05-.62,9.82,4.43,7.79,8.02-8.8-1.7-20.41-6.35-30.25-4.82-7.94.62-5.52,4.95,1,3.96,10.51-.07,22.92,1.1,30.92,8.22,3.31,7.41.5,16.2-1.92,23.96-1.48,5.31-4.54,10.77-7.78,4.26-3.91-6.84,1.77-15.46-3.21-22.16-1.05-1.83-3.99-4.97-6.02-3.67-.8,2.81,3.02,5.36,3.6,8.08,1.15,5,.05,11.53-.2,16.66-6.1-1.21-12.58-5.37-19.26-4.31-2.11-.14-6.37,2.21-2.49,3.57,40.07,3.9,23,24.63-5.67,6.7-19.91-10.49-31.01-26.63-27.35-48.72,1.24-24.4,1.28-59.6,1.67-82.21,0-9.19,2.01-11.92-7.02-13.02-9.81-1.58-20.14-.9-27.76,2.23-1.52,5.89-.39,14.2-.88,19.71-3.35,39.01,11.23,86.11-16.72,118.86-4,5.34-28.73,1.1-16.56-6.29,5.3-1.59,8.41-6.81,12.37-9.92,1.87-1.39,5.04-1.65,6.38-3.58.57-1.79-2.48-1.77-3.68-2.03-4.39-.49-1.76-6.11-3.67-8.9-3.91-4-2.26,16.37-14.25,18.71-5.45,1.76-12.66,1.65-15.72-3.51-.57-5.4,8.2-6.31,11.78-8.86,5.14-2.35,9.7-5.23,12.98-10.07,1.38-3.82,16.18-19.46,3.91-13.61-1.72-.12-1.15-2.94-2.21-4.24-1.06-1.58-2.27-.28-2.75,1.67-.49,9.35-5.14,17.07-14.11,20.61-18.14,10.12-12.07-.1-.85-7.25,13.68-9.39,10.94-22.32,14.38-35.73.24-3.41,12.26-10.54,5.54-10.89-2.05-.12-5.42,4.21-5.8.82.22-10.25,3.37-25.18-5.38-32.6-3.22,1.94,1.26,7.82,1.25,10.94.72,6.24,2.16,15.93-.89,20.77-2.31-2.84-7.03-15.1-12.3-13-.64,2.35,2.42,4.78,3.71,6.71,3.61,4.59,5.96,11.22,6.24,16.71,2.07,39.4-18.04,25.95-9.53,11.78,1.97-2.24,5.48-17.04-.21-10.6-6.13,21.49-9.68,4.94-12.24-6.32-1.29-7.11,1.13-15.76-1.96-22.48-.5-3.47-9.58-9.91-5.91-2.05,4.88,6.06,3.24,14.38,3.42,21.94.07,7.03-5.19-.03-7.29-3.04-4.1-5.27-5.49-11.99-7.86-17.95-2.57-3.66-3.49,2.33-2.56,4.45,1.74,13.92,14.96,21.2,19.79,33.39,3.43,14.82,18.83,19.73,4.49,29.88-1.38.76-2.6,5.02-4.33,3.5-7.36-16-2.17-10.98-3.36-23.41-3.42-7.22-9.26-12.83-13.07-19.98-3.5-4.44-3.53-10.78-8.03-13.37-4.69,7.56,13.56,26.61,16.91,33.92,3.29,11.19-12.23.13-15.27-2.51-5.01-3.69-18.92-35.4-23.19-28.19,4.74,9.21,12.39,17.66,16.68,27.16-5.94-2.78-12.12-6.81-17.85-10.54-2.18-2.38-11.72-10.24-7.45-1.62,1.4,3.29,9.77,6.62,9.67,9.37-2.22,1.36-8.86,5.11-2,5.15,3.55-.42,7.34-2.55,10.9-1.05,3.04,1.21,5.45,4.2,8.19,5.84,4.64,2.26,8.57,2.51,13.31,6.74,1.36,1.49,7.17,6.11,4.96,7.88-1.62.05-4.12-1.06-5.83-.72-4.16,2.11,4.05,4.48,5.22,5.77.43,1.05-1.83,1.62-2.38,2.45-2.27,3.13,4.45,1.81,5.76,3.61,4.5,14.89-19.36,7.61-23.1-.31-2.02-3.61-6.88-6.71-7.85-10.45-1.26-2.48,4.3-11.16-1.15-8.69-2.23,2.55-3.83,6.81-7.73,4.68-11.68-2.21-16.35-20.26-27.61-20.59.37,6.58,27.6,21.61.34,13.86-9.37,2.45,16.72,10.17,19.17,10.12,6.66,2.02,13.32,6.29,17.65,11.67,5.02,5.52-14.37,4.91-17.08,4.88-3.7-1.11-9.52-2.88-10.85-6.3-1.05-15.16-3.6,1.75-12.53.18-3.77,1.12-8.86-3.82-12.01-1.56,2.07,7.16,12.32,4.74,17.86,6.75,2.51,1.17,7.75,2.95,9.18,4.73-8.87-1.76-18.4-.84-27.33-1.39-2.53-.29-5.91-4.5-7.78-2.04,1.49,7.33-10.33,5.3-13.64,9.81-6.23,12.56,32.46-11.25,16.24,7.86-1.84,1.34-5.28,3.86-2.57,5.2,5.18.86,9.86-7.35,11.68-12.21,2.34-3.5,6.56-2.61,5.18,1.82-.48,1.6-.1,5.1,1.62,5.31,2.58-.97,2.26-5.8,4.55-7.5,2.74-3.04,12.57-1.09,15.07.77.49,2.23-2.64,4.2-2.56,6.47,3.33,8.74,13.49-10.98,19.42-10.86,2.25-.83,8.48-1.11,8.48,2.1-1.43,2.1-6.62.76-7.23,3.66,2.18,2.81,12.06,2.07,1.14,6.82-10.78,3.26-22.48.87-32.79,6.41-15.51,9.85-9.93,8.8-27.45,5.94-1.08,5.52,12.54,6.52,16.51,7.67,6.71-1.23,10.76-8.56,17.81-9.92,18.23-5.4-5.66,22.01-18.57,22.57-8.96.48-15.88-8.54-25.27-7.88-2.15-.46-7.37,1.31-3.21,3.26,4.77,1.36,13.81,1.73,16.77,5.91,0,1.22-1.97,2.17-1.34,3.45,2.88,2.25,8.63.51,6.29,6.53-1.62,3.17-5.99,12.4.81,6.99,3.35-3.16,3.2-9.3,5.61-12.64,4.97-3.96,11.62-4.58,16.72-8.8,13.06-7.37,8.92-22.26,23.46-22.28,2.13.09,9.23-3.54,8.58.63-3.81,8.24-10.7,15.72-18.73,20-6.94,2.12-15.57,6.12-1.66,5.92,2.93.63,3.12,6.32,6.2,6.05,2.02-6.6-.85-7.23,6.7-12.46,3.42-2.48,5.75-6.96,9.34-8.97,5.17,1.2,4.59,11.6,2.42,15.66-6.09,14.1,9.21.52,5.25-11.03-.44-3.81-3.59-6.89-3.92-10.52.07-3.63,3.08-7.62,5.01-2.66,2.26,6.14,7.93,11.62,10,17.49.38,1.8-.45,4.42.58,5.93,3.64.48,4.62-5.4,7.67-6.63,2.16-1.72,7.05-1.79,7.84-4.71-1.69-3.02-7.75.67-10.33-.54-5.36-3.05-9.8-11.05-10.39-16.95.65-9.84,19.14-3.04,24.71-1.22,4.73,1.75,5.21,6.83,8.39,10.06,3.65,4.6,11.41,7.67,13.58,12.79,2.29,8.45-5.26,17.09-12.87,19.7-11.04,3.98-22.56,3.17-33.96,1.59-9.38,2.43,3.01,7.4,7.04,6.93,6.97.04,12.89,3.39,14.91,10.3.76,2.67,1.4,8.11-1.15,9.5-17.22-10.7-34.76-24.03-55.54-28.86-4.5-.83-8.2-3.53-12.22-5.48-3.4-1.4-1.4,2.76-3.14,3.75-1.55.6-4.17.43-5.88,1.28-5.05,4.39,8.99,2.79,10.87,3.9,7.31,2.24,17.9,3.92,23.79,8.43-2.75,8.41-17.08,4.44-23.95,3.12-3.64-.08-24.19-9.59-18.26-1.96,7.96,4.08,17.16,5.98,26.13,7.58,8.68,2.53,15.83-3.15,23.72-5.18,20.91,6.96,2.47,6.38-5.11,12.47-7.51,9.05,17.55-5.14,21.21-2.31,7.17,1.7,13.39,8.45,18.56,13.58,2.71,6.9-11.96,11.24-17.06,11.7-7.47.18-17.28,2.56-23.33-1.31-2.87-5.89-8.24-13.52-15.54-13.1-1.37.03-2.76,1.51-1.23,2.57,41.68,19.99-53.96,20.18-28.72-13.98,3.82-9.73-9.75.93-8.15,13.17-3.22,4.88-15.88-10.49-21.46-9.04-8.72,4.72,24.15,19.01,27.86,22.17,8.29,4.74,16.44,6.98,25.74,7.29,3.99.38-3.07,1.21-4.16,1.41-21.99,4.22-42.04-9.73-64.27-7.03-2.05.1-5.67.31-5.91,2.4.83,1.76,3.95,1.63,5.83,1.61,10.8-.38,21.72.85,32.3,3.71,7,1.68,3.32,2.81-2.31,4.39-3.74.47-14.45,6.34-6.53,8.23,5.7.35,19.29-10.13,21.06-1.24,1.41,3.12,6.44-6.64,10.67-5.2,7.34-.08,16.53-2.05,24.09-3.65-15.11,5.95-29.36,17.67-46.68,15.17-13.35-1.56-25.3,9.06-38.67,6.82-2.19-.46-5.88,1.92-2.13,3.26,1.94.85,5.4.81,5.13,2.5-10.67,11.48-3.3,8.64,5.66,2.6,17.89-13.21,36.12-5.3,54.47-12.97,8.19-3.89,16.14-8.6,24.72-11.76,10.31-5-8.25,16.28-.25,20.35,5.49.44,5.74-19.36,14.8-21.66,5.93-.89,21.24-3.01,23.44,4.07-.04,12.66-14.22,20.43-24.77,24.28-14.72,1.6-29.83-2.18-44.83.89-18.47,4.61-48.65,4.12-56.7,24.58-.21,2.09,1.39,2.41,2.72,1.02,3.9-4.95,10.56-13.54,17.42-12.62-.02,2.36-5.27,8.13-5.22,10.7,2.37,6.94,8.94-11.06,12.64-11.04,10.3-4.6.55,5.82,5.6,6.29,2.44-1.11,3.4-4.73,5.01-6.83,4.29-5.29,12.75-5.18,18.98-5.62,2.06.2,2.24,3.86,3.63,3.98,2.07-.46,3.11-3.24,4.92-4.33,4.76-2.08,16.01-2.35,20.85-.02.4,3.28-7.53,7.34-10.99,8.71-6.07,4.1-20.31-1.31-19.96,5.02,6.73,6.57,19.9,2.06,27.52-1.88,7.64-4.44,12.19-13.02,21.65-14.14,3.05-.41,4.19,3.07,1.49,3.89-2.74,1.38-11.4-1.58-10.41,3.94.81,1.74,3.75,1.96,4.24,3.6-2.52,4.9-9.7,7.97-14.67,9.94-13.16,3.39-22.29,5.64-36.22,11.38-9.36,3.49-17.92-4.96-27.78-2.16-3.5.37-5.72,3.42-1.71,3.84,2.6.23,19.28-1.23,16.83,3.91-5.42,4.69-11.67,4.71-18.87,4.9-5.29,1.14-13.76,4.22-13.99,10.22,2.47,2.22,5.63-3.05,8.23-3.95,9.32-5.3,15.12-.92,21.56,4.21,3.7-10.52,4.91-9.31,15.09-14.04,20.09-10.46,41.42-8.24,57.28-24.32.91-.81,1.27-1.02.97-.46-6.23,9.4-15.97,17.67-26.52,21.43-17.21,7.18-35.32,15.24-46.2,31.72-5.13,8.52-16.79,8.3-22.06,17.14-3.09,4.65.04,6.53,3.72,1.71,19.47-17.97,6.31,1.28,14.21.52,12.81-21.4,14.76-27.97,39.52-39.73,1.72-.88,4.56-2.05,4.01.96,3,7.57-37.65,40.61-23.24,36.07,5.7-4.77,11.98-14.09,17.81-18.05.35-.05.55.17.63.65-.37,3.77-3.63,22.45,1.87,15.23,3.89-12.77,1.51-36.49,15.91-42.25,15.92-5.02,23.13-25.65,34.72-25.39.94,1.98-3.31,4.27-4.55,5.85-6.95,5.58-9.59,14.15-13.75,21.41-6.77,4.16-16.18,7.59-18.86,15.76-1.78,10.9,11.17-11.42,16.17-8.95.61,3.84-2.39,8.82-1.04,12.98,6.2,15.11,1.55-24.03,10-6.13,1.1,3.48,6.45,7.28,4.58.56-.73-2.07-1.93-4.14-2.77-6.17-3.56-8.15,2.66-17.08,7.84-23.03,1.19-1.09,1.05-.32.51,1.15-2.48,5.93-3.63,12.88-2.87,19.41-.07,7.01,6.29,13.2,3.9,20.12-3.74,9.59-18.21,16.03-16.44,27.43,3.25.67,4.29-5.28,6.02-7.38,3.23-5.85,8.77-9.32,12.35-14.91,3.46-7.35,4.55-5.09,6.64,1.03,3.15,7.76,3.69,15.92,1.55,23.92-.28,7.01,4.64.74,4.68-2.86,5.46-27.7-26.54-45.68-5.44-73.31,6.57-9.71,8.61-21.34,15.77-30.29-1.3,9.21-2.36,19.13,1.54,28.21,2.02,6.73,7.2,13.82,3.29,20.81-5.11,11.44-3.16,24.1-5.18,36.24-.64,7.57,4.07,4.66,4.17-1.07,1-2.76.95-43.9,8.05-30.01,2.29,3.69,0,7.52-.26,11.2.37,1.77,2.93.9,3.61,2.46,2.54,9.09-1.38,18.3-4.83,26.75-.76,1.94.2,4.75,2.24,2.8,2.05-1.65,3.27-7.52,4.48-7.38,1.51,2.93-.39,10.15,3.64,10.75,3.4-5.65-1.02-15.4.97-22.16,2.21-18.47-8.22-34-13.87-50.64-4.23-10.63-4.75-24.05,1.89-34.15,5.42-.81,10.48,10.02,14.73,14,8.5,7.08,5.84,15.59,7.4,25.1,2.76,8.23,4.15,17.21,4.39,25.92,4.02,4.39,3.95-8.34,3.46-10.58-.94-9.07-5.73-16.91-4.47-26.02.48-9.75,18.6-5.03,8.82-10.71-10.97.88-10.11-2-16.6-9.64-2.07-1.68-14.47-22.06-5.44-17.76,3.47,1.52,6.53,9.98,10.92,7.18,1.73-6.27-9.24-14.31-7.08-27.36,3.26-23.13,13.55,10.56,15.66,16.86.74,2.14-1.23,8.59,2.6,6.43,2.49-2.04,1.6-6.25,2.55-8.66,4.24-6.58,7.52-4.88-1.54-7.71-3.58-5.32-4.7-12.3-8.29-17.81-2.08-3.34-3.28-7.91,1.7-9.34,4.38-1.86,10.23-.63,14.06-3.67,2.95-4.91-6.12-2.82-6.51-6.29-1.17-9.02-6.55,5.32-11.41,4.64-11.69,5.61,11.81-53.34,16.78-55.36,23.81-35.88,16.05,1.89,61.41,8.48,3.2.4,7.08.38,6.65,4.36-.47,2.86-.69,12.85,3.17,5.82,1.31-5.62,4.2-3.85,8.11-.37,2.17,1.64,3.84,4.08,3.01,6.89-2.49,7.31-5.23,14.82-5.15,22.56.52,5.99,4.12,2.14,4-1.66,1.19-8.38,3.31-27.47,14.12-14.72,7.07,10.98,2.77,26.23-3.51,36.82-4.35,6.43-8.48,13.26-15.1,17.51-6.7,5.94-17.76,11.08-20.25,20.04,3.81,6.37,13.21-9.44,17.3-9.75-1.71,12.01-4.42,27.74-13.57,37.3-6.58,7.73.59,3.52,3.14,5.09,1.32,3.2-2.39,6.84-2.3,9.74.47,2.46,3.15.46,4.25-1.22,2.88-3.99,2.6-9.36,3.86-13.64,4.26-9.31,7.56-19.06,9.36-28.92-.45-4.56,14.99-32.48,13.08-15.33-2.14,5.44-6.25,9.74-10,13.93-9.26,10.85.88,24.72-.95,37.02-.84,3.62-4.01,8.23-5.32,12.76-1.54,4.16-1,8.95-3.68,12.64-1.18,2.06-3.75,4.71-1.12,5.2,8.5-3.53,2.19,5.86,7.05,7.77,4.83-4.9-.73-15.77,3.64-20.71,1.35-.22,3.76,1.63,4.56.55-.96-7.99-4.16-6.12.41-15.49,2.4-8.97-1.85-18.45-2.31-27.49-1.56-7.21,6.23-11.59,9.81-17.14,4.27-3.98.36,16.33.85,18.85-3.22,18.1,3.19,35.65,1.61,53.42-.28,3.07-3.69,6.55-2.53,9.44,9.48-1.69,7.22-19.18,6.02-26.34-1.48-5.68,3.7-4.81,6.05-1.51,2.13,4.91,6.27,10.74,8.43,15.55,1.04,2.72-.65,6.6,1.36,8.8,3.72-.46,3.37-7.06,2.63-9.94-2.63-7.48-13.78-17.5,2.29-9.47,10.26,0-16.48-14.08-18.3-14.77-4.5-5.03-1.57-14.04-1.82-20.55.65-8.12,1-15.84,1.59-23.73.08-.14.17.18.27.88.73,8.85-1.04,19.16,6.16,26.02,1.9,3.25,10.46,5.55,7.48-.61-8.17-6.81-7.25-16.57-7.63-26.28.68-6.65-8.57-18.32-1.91-22.8,4.89,2.34,3.08,11.62,5.25,16.29,2.36,10.84,8.33,19.93,11.4,30.34,4.38,8.01-12.38,22.04-3.87,22.02,4.09.1,7.01-9.69,9.44-5.81,1.01,2.17-.32,6.68,1.84,8.32,3.33-.09,2.78-5.76,2.42-8.27-1.72-5.9-3.44-10.6-3.69-16.58-3.83-13.66-12.49-26.86-13.57-41.25.11-7.04-5-12.17-6.8-18.6-.57-5.1-1.02-12.82.42-17.38,5.79,7.48,7.27,19.55,10.32,28.77,3.15,21.75,8.52,42.22,15.32,63.04,4.2,21.2,2.22,20.03,15.67,37.05-.69,4-5.61,6.04-7.8,9.33-1.36,2.67-21.97,23.33-14.14,23.21,13.31-12.99,31.93-50.14,34.67-8.08-.14,5.63,3.91,4.79,3.93-.38.89-8.42-5.92-18.3,6.45-8.53,10.25,5.09,8.11,18.02,10.03,27.63-.2,3.29,3.84,7.41,3.99,1.15-.16-5.52-1.4-11.16-1.87-16.66-.21-4.96,4.31-.8,7.32.99,3.06,1.81,6.21,4.23,6.11,8.13-1.22,4.96,6.95,25.1,10.29,18.15-1.29-3.4-10.68-18.48-4.1-20.31,4.48.3,14.84,14.84,15.78,8.43l-.04-.13ZM113.82,245.67c.14,0,.35.03.15.08-.4.11-.81.22-1.21.33-.22.06-.66.19-.68.19.33-.13,1.25-.44,1.62-.58l.12-.02ZM166.41,218.95c-1.22,1.34-3.24,2.94-5.1,2.46-2.84-.95-4.01-3.63-2.92-6.36,1.46-5.7.06-12.23-3.54-16.86-2.11-2.71,1.36-2.74,3.34-3.18,1.25-.2,2.63-.69,3.84-.58.23.05.39.15.42.38.13.69-1.34,2.79-1.91,4.85-.47,1.53-.72,3.2-.65,4.78-.16,3.6,3.93,6.22,5.95,2.61.6-1.21.47-2.77.76-4.37.24-1.44.94-3.07,1.78-4.03,2.17-2.6,6.1.93,5.59,3.55-.82,4.05-4.13,10.17-5.95,14.12-.43.87-.86,1.71-1.48,2.47l-.12.15Z"/>
      <circle class="cls-3" cx="351.63" cy="300.64" r="57.89"/>
      <circle class="cls-2" cx="137.7" cy="116" r="49.44"/>
      <circle class="cls-4" cx="52.16" cy="303.59" r="52.16"/>
      <circle class="cls-1" cx="364.33" cy="72.3" r="36"/>
    </g>
  </g>
</svg>