<?xml version="1.0" encoding="UTF-8"?>
<svg id="Layer_2" data-name="Layer 2" xmlns="http://www.w3.org/2000/svg" viewBox="0 0 90.08 75.85">
  <defs>
    <style>
      .cls-1, .cls-2 {
        fill: #77184a;
        stroke: #000;
        stroke-linejoin: round;
      }

      .cls-2 {
        stroke-linecap: round;
      }
    </style>
  </defs>
  <g>
    <g>
      <g>
        <path class="cls-1" d="M38.06,53.17v15.55c0,.35.28.64.64.64h5.15c.72-.45-2.74-2.08-3.73-2.38,0-.59.31-3.03.59-4.42s.85-5.7.93-6.58c.06-.61.05-2,.05-2.81,0-.35-.29-.63-.64-.63h-2.36c-.35,0-.64.28-.64.64Z"/>
        <path class="cls-1" d="M35.94,53.17v15.55c0,.35-.28.64-.64.64h-5.15c-.72-.45,2.74-2.08,3.73-2.38,0-.59-.31-3.03-.59-4.42s-.85-5.7-.93-6.58c-.06-.61-.05-2-.05-2.81,0-.35.29-.63.64-.63h2.36c.35,0,.64.28.64.64Z"/>
      </g>
      <path class="cls-1" d="M43.77,39.95s.73.26,1.37-.62.64-3.19.64-3.19c0,0,0-17.45,0-19.33s-.66-2.27-1.85-2.27c-.79,0-13.85,0-13.85,0-1.19,0-1.85.39-1.85,2.27v19.33s0,2.31.64,3.19,1.37.62,1.37.62"/>
      <path class="cls-2" d="M43.36,19.02c-.09.94-.24,2.37-.36,2.93-.19.87-1,2.8-1.25,4.29s-.06,2.43.44,4.17.75,3.67,1.25,6.04.77,16.07.77,16.07h-7.21s-7.21,0-7.21,0c0,0,.27-13.71.77-16.07s.75-4.3,1.25-6.04.69-2.68.44-4.17-1.06-3.42-1.25-4.29c-.12-.57-.27-2-.36-2.93"/>
      <path class="cls-1" d="M41.77,14.56c0-.89-.96-4.2-1.25-5.25s-.48-4.36-.8-4.85-1.47-1.23-2.72-1.23c-1.25,0-2.4.74-2.72,1.23s-.51,3.8-.8,4.85-1.25,4.35-1.25,5.25c3.18,1.9,6.36,1.9,9.54,0Z"/>
    </g>
    <g>
      <g>
        <path class="cls-1" d="M9.31,54.85v13.93c0,.31.25.57.57.57h4.62c.65-.4-2.46-1.86-3.34-2.14,0-.52.28-2.71.53-3.96s.76-5.1.83-5.9c.05-.55.05-1.79.04-2.52,0-.31-.26-.56-.57-.56h-2.11c-.31,0-.57.25-.57.57Z"/>
        <path class="cls-1" d="M7.41,54.85v13.93c0,.31-.25.57-.57.57H2.23c-.65-.4,2.46-1.86,3.34-2.14,0-.52-.28-2.71-.53-3.96s-.76-5.1-.83-5.9c-.05-.55-.05-1.79-.04-2.52,0-.31.26-.56.57-.56h2.11c.31,0,.57.25.57.57Z"/>
      </g>
      <path class="cls-1" d="M14.42,43.02s.65.23,1.23-.55.57-2.85.57-2.85c0,0,0-15.63,0-17.31s-.59-2.03-1.65-2.03c-.7,0-12.41,0-12.41,0-1.07,0-1.65.35-1.65,2.03v17.31s0,2.07.57,2.85,1.22.55,1.22.55"/>
      <path class="cls-2" d="M14.06,24.27c-.08.84-.21,2.12-.32,2.63-.17.78-.89,2.51-1.12,3.85s-.06,2.18.39,3.74.67,3.29,1.12,5.41.69,14.4.69,14.4h-6.46s-6.46,0-6.46,0c0,0,.24-12.28.69-14.4s.67-3.85,1.12-5.41.61-2.4.39-3.74-.95-3.07-1.12-3.85c-.11-.51-.24-1.79-.32-2.63"/>
      <path class="cls-1" d="M12.63,20.27c0-.8-.86-3.76-1.12-4.7s-.43-3.91-.72-4.35-1.31-1.1-2.43-1.1c-1.12,0-2.15.66-2.43,1.1s-.46,3.41-.72,4.35-1.12,3.9-1.12,4.7c2.85,1.71,5.7,1.71,8.55,0Z"/>
    </g>
    <g>
      <path class="cls-1" d="M64.51,67.8v1.55h-7.38l-2.48-25.17-2.48,25.17h-7.38v-1.55l2.22-1.15,1.11-29.67h-2.27c-.75-.87-.75-3.18-.75-3.18V14.47c0-1.88.78-2.27,2.18-2.27h4.11l-.92-7.52c0-1.15.47-2.2,1.22-2.96.76-.75,1.81-1.22,2.96-1.22,2.31,0,4.18,1.87,4.18,4.18l-.92,7.52h4.11c1.4,0,2.17.39,2.17,2.27v19.33s0,2.31-.75,3.18h-2.27l1.1,29.67,2.24,1.15Z"/>
      <line class="cls-2" x1="48.12" y1="36.98" x2="48.12" y2="16.54"/>
      <line class="cls-2" x1="61.19" y1="36.98" x2="61.19" y2="16.54"/>
    </g>
    <g>
      <path class="cls-1" d="M83.58,67.8v1.55h-7.38l-2.48-25.17-2.48,25.17h-7.38v-1.55l2.22-1.15,1.11-29.67h-2.27c-.75-.87-.75-3.18-.75-3.18V14.47c0-1.88.78-2.27,2.18-2.27h4.11l-.92-7.52c0-1.15.47-2.2,1.22-2.96.76-.75,1.81-1.22,2.96-1.22,2.31,0,4.18,1.87,4.18,4.18l-.92,7.52h4.11c1.4,0,2.17.39,2.17,2.27v19.33s0,2.31-.75,3.18h-2.27l1.1,29.67,2.24,1.15Z"/>
      <line class="cls-2" x1="67.19" y1="36.98" x2="67.19" y2="16.54"/>
      <line class="cls-2" x1="80.27" y1="36.98" x2="80.27" y2="16.54"/>
    </g>
    <g>
      <path class="cls-1" d="M29.21,68.26v1.09h-5.18l-1.74-17.68-1.74,17.68h-5.18v-1.09l1.56-.81.78-20.84h-1.59c-.53-.61-.53-2.23-.53-2.23v-13.58c0-1.32.55-1.59,1.53-1.59h2.89l-.65-5.28c0-.81.33-1.55.86-2.08.53-.53,1.27-.86,2.08-.86,1.62,0,2.94,1.31,2.94,2.94l-.65,5.28h2.89c.98,0,1.52.27,1.52,1.59v13.58s0,1.62-.53,2.23h-1.59l.77,20.84,1.57.81Z"/>
      <line class="cls-2" x1="17.69" y1="46.61" x2="17.69" y2="32.25"/>
      <line class="cls-2" x1="26.88" y1="46.61" x2="26.88" y2="32.25"/>
    </g>
  </g>
  <g>
    <g>
      <g>
        <path class="cls-1" d="M40.06,55.17v15.55c0,.35.28.64.64.64h5.15c.72-.45-2.74-2.08-3.73-2.38,0-.59.31-3.03.59-4.42s.85-5.7.93-6.58c.06-.61.05-2,.05-2.81,0-.35-.29-.63-.64-.63h-2.36c-.35,0-.64.28-.64.64Z"/>
        <path class="cls-1" d="M37.94,55.17v15.55c0,.35-.28.64-.64.64h-5.15c-.72-.45,2.74-2.08,3.73-2.38,0-.59-.31-3.03-.59-4.42s-.85-5.7-.93-6.58c-.06-.61-.05-2-.05-2.81,0-.35.29-.63.64-.63h2.36c.35,0,.64.28.64.64Z"/>
      </g>
      <path class="cls-1" d="M45.77,41.95s.73.26,1.37-.62.64-3.19.64-3.19c0,0,0-17.45,0-19.33s-.66-2.27-1.85-2.27c-.79,0-13.85,0-13.85,0-1.19,0-1.85.39-1.85,2.27v19.33s0,2.31.64,3.19,1.37.62,1.37.62"/>
      <path class="cls-2" d="M45.36,21.02c-.09.94-.24,2.37-.36,2.93-.19.87-1,2.8-1.25,4.29s-.06,2.43.44,4.17.75,3.67,1.25,6.04.77,16.07.77,16.07h-7.21s-7.21,0-7.21,0c0,0,.27-13.71.77-16.07s.75-4.3,1.25-6.04.69-2.68.44-4.17-1.06-3.42-1.25-4.29c-.12-.57-.27-2-.36-2.93"/>
      <path class="cls-1" d="M43.77,16.56c0-.89-.96-4.2-1.25-5.25s-.48-4.36-.8-4.85-1.47-1.23-2.72-1.23c-1.25,0-2.4.74-2.72,1.23s-.51,3.8-.8,4.85-1.25,4.35-1.25,5.25c3.18,1.9,6.36,1.9,9.54,0Z"/>
    </g>
    <g>
      <g>
        <path class="cls-1" d="M11.31,56.85v13.93c0,.31.25.57.57.57h4.62c.65-.4-2.46-1.86-3.34-2.14,0-.52.28-2.71.53-3.96s.76-5.1.83-5.9c.05-.55.05-1.79.04-2.52,0-.31-.26-.56-.57-.56h-2.11c-.31,0-.57.25-.57.57Z"/>
        <path class="cls-1" d="M9.41,56.85v13.93c0,.31-.25.57-.57.57h-4.62c-.65-.4,2.46-1.86,3.34-2.14,0-.52-.28-2.71-.53-3.96s-.76-5.1-.83-5.9c-.05-.55-.05-1.79-.04-2.52,0-.31.26-.56.57-.56h2.11c.31,0,.57.25.57.57Z"/>
      </g>
      <path class="cls-1" d="M16.42,45.02s.65.23,1.23-.55.57-2.85.57-2.85c0,0,0-15.63,0-17.31s-.59-2.03-1.65-2.03c-.7,0-12.41,0-12.41,0-1.07,0-1.65.35-1.65,2.03v17.31s0,2.07.57,2.85,1.22.55,1.22.55"/>
      <path class="cls-2" d="M16.06,26.27c-.08.84-.21,2.12-.32,2.63-.17.78-.89,2.51-1.12,3.85s-.06,2.18.39,3.74.67,3.29,1.12,5.41.69,14.4.69,14.4h-6.46s-6.46,0-6.46,0c0,0,.24-12.28.69-14.4s.67-3.85,1.12-5.41.61-2.4.39-3.74-.95-3.07-1.12-3.85c-.11-.51-.24-1.79-.32-2.63"/>
      <path class="cls-1" d="M14.63,22.27c0-.8-.86-3.76-1.12-4.7s-.43-3.91-.72-4.35-1.31-1.1-2.43-1.1c-1.12,0-2.15.66-2.43,1.1s-.46,3.41-.72,4.35-1.12,3.9-1.12,4.7c2.85,1.71,5.7,1.71,8.55,0Z"/>
    </g>
    <g>
      <path class="cls-1" d="M66.51,69.8v1.55h-7.38l-2.48-25.17-2.48,25.17h-7.38v-1.55l2.22-1.15,1.11-29.67h-2.27c-.75-.87-.75-3.18-.75-3.18v-19.33c0-1.88.78-2.27,2.18-2.27h4.11l-.92-7.52c0-1.15.47-2.2,1.22-2.96.76-.75,1.81-1.22,2.96-1.22,2.31,0,4.18,1.87,4.18,4.18l-.92,7.52h4.11c1.4,0,2.17.39,2.17,2.27v19.33s0,2.31-.75,3.18h-2.27l1.1,29.67,2.24,1.15Z"/>
      <line class="cls-2" x1="50.12" y1="38.98" x2="50.12" y2="18.54"/>
      <line class="cls-2" x1="63.19" y1="38.98" x2="63.19" y2="18.54"/>
    </g>
    <g>
      <path class="cls-1" d="M85.58,69.8v1.55h-7.38l-2.48-25.17-2.48,25.17h-7.38v-1.55l2.22-1.15,1.11-29.67h-2.27c-.75-.87-.75-3.18-.75-3.18v-19.33c0-1.88.78-2.27,2.18-2.27h4.11l-.92-7.52c0-1.15.47-2.2,1.22-2.96.76-.75,1.81-1.22,2.96-1.22,2.31,0,4.18,1.87,4.18,4.18l-.92,7.52h4.11c1.4,0,2.17.39,2.17,2.27v19.33s0,2.31-.75,3.18h-2.27l1.1,29.67,2.24,1.15Z"/>
      <line class="cls-2" x1="69.19" y1="38.98" x2="69.19" y2="18.54"/>
      <line class="cls-2" x1="82.27" y1="38.98" x2="82.27" y2="18.54"/>
    </g>
    <g>
      <path class="cls-1" d="M31.21,70.26v1.09h-5.18l-1.74-17.68-1.74,17.68h-5.18v-1.09l1.56-.81.78-20.84h-1.59c-.53-.61-.53-2.23-.53-2.23v-13.58c0-1.32.55-1.59,1.53-1.59h2.89l-.65-5.28c0-.81.33-1.55.86-2.08.53-.53,1.27-.86,2.08-.86,1.62,0,2.94,1.31,2.94,2.94l-.65,5.28h2.89c.98,0,1.52.27,1.52,1.59v13.58s0,1.62-.53,2.23h-1.59l.77,20.84,1.57.81Z"/>
      <line class="cls-2" x1="19.69" y1="48.61" x2="19.69" y2="34.25"/>
      <line class="cls-2" x1="28.88" y1="48.61" x2="28.88" y2="34.25"/>
    </g>
  </g>
  <g>
    <g>
      <g>
        <path class="cls-1" d="M42.06,57.17v15.55c0,.35.28.64.64.64h5.15c.72-.45-2.74-2.08-3.73-2.38,0-.59.31-3.03.59-4.42s.85-5.7.93-6.58c.06-.61.05-2,.05-2.81,0-.35-.29-.63-.64-.63h-2.36c-.35,0-.64.28-.64.64Z"/>
        <path class="cls-1" d="M39.94,57.17v15.55c0,.35-.28.64-.64.64h-5.15c-.72-.45,2.74-2.08,3.73-2.38,0-.59-.31-3.03-.59-4.42s-.85-5.7-.93-6.58c-.06-.61-.05-2-.05-2.81,0-.35.29-.63.64-.63h2.36c.35,0,.64.28.64.64Z"/>
      </g>
      <path class="cls-1" d="M47.77,43.95s.73.26,1.37-.62.64-3.19.64-3.19c0,0,0-17.45,0-19.33s-.66-2.27-1.85-2.27c-.79,0-13.85,0-13.85,0-1.19,0-1.85.39-1.85,2.27v19.33s0,2.31.64,3.19,1.37.62,1.37.62"/>
      <path class="cls-2" d="M47.36,23.02c-.09.94-.24,2.37-.36,2.93-.19.87-1,2.8-1.25,4.29s-.06,2.43.44,4.17.75,3.67,1.25,6.04.77,16.07.77,16.07h-7.21s-7.21,0-7.21,0c0,0,.27-13.71.77-16.07s.75-4.3,1.25-6.04.69-2.68.44-4.17-1.06-3.42-1.25-4.29c-.12-.57-.27-2-.36-2.93"/>
      <path class="cls-1" d="M45.77,18.56c0-.89-.96-4.2-1.25-5.25s-.48-4.36-.8-4.85-1.47-1.23-2.72-1.23c-1.25,0-2.4.74-2.72,1.23s-.51,3.8-.8,4.85-1.25,4.35-1.25,5.25c3.18,1.9,6.36,1.9,9.54,0Z"/>
    </g>
    <g>
      <g>
        <path class="cls-1" d="M13.31,58.85v13.93c0,.31.25.57.57.57h4.62c.65-.4-2.46-1.86-3.34-2.14,0-.52.28-2.71.53-3.96s.76-5.1.83-5.9c.05-.55.05-1.79.04-2.52,0-.31-.26-.56-.57-.56h-2.11c-.31,0-.57.25-.57.57Z"/>
        <path class="cls-1" d="M11.41,58.85v13.93c0,.31-.25.57-.57.57h-4.62c-.65-.4,2.46-1.86,3.34-2.14,0-.52-.28-2.71-.53-3.96s-.76-5.1-.83-5.9c-.05-.55-.05-1.79-.04-2.52,0-.31.26-.56.57-.56h2.11c.31,0,.57.25.57.57Z"/>
      </g>
      <path class="cls-1" d="M18.42,47.02s.65.23,1.23-.55.57-2.85.57-2.85c0,0,0-15.63,0-17.31s-.59-2.03-1.65-2.03c-.7,0-12.41,0-12.41,0-1.07,0-1.65.35-1.65,2.03v17.31s0,2.07.57,2.85,1.22.55,1.22.55"/>
      <path class="cls-2" d="M18.06,28.27c-.08.84-.21,2.12-.32,2.63-.17.78-.89,2.51-1.12,3.85s-.06,2.18.39,3.74.67,3.29,1.12,5.41.69,14.4.69,14.4h-6.46s-6.46,0-6.46,0c0,0,.24-12.28.69-14.4s.67-3.85,1.12-5.41.61-2.4.39-3.74-.95-3.07-1.12-3.85c-.11-.51-.24-1.79-.32-2.63"/>
      <path class="cls-1" d="M16.63,24.27c0-.8-.86-3.76-1.12-4.7s-.43-3.91-.72-4.35-1.31-1.1-2.43-1.1c-1.12,0-2.15.66-2.43,1.1s-.46,3.41-.72,4.35-1.12,3.9-1.12,4.7c2.85,1.71,5.7,1.71,8.55,0Z"/>
    </g>
    <g>
      <path class="cls-1" d="M68.51,71.8v1.55h-7.38l-2.48-25.17-2.48,25.17h-7.38v-1.55l2.22-1.15,1.11-29.67h-2.27c-.75-.87-.75-3.18-.75-3.18v-19.33c0-1.88.78-2.27,2.18-2.27h4.11l-.92-7.52c0-1.15.47-2.2,1.22-2.96.76-.75,1.81-1.22,2.96-1.22,2.31,0,4.18,1.87,4.18,4.18l-.92,7.52h4.11c1.4,0,2.17.39,2.17,2.27v19.33s0,2.31-.75,3.18h-2.27l1.1,29.67,2.24,1.15Z"/>
      <line class="cls-2" x1="52.12" y1="40.98" x2="52.12" y2="20.54"/>
      <line class="cls-2" x1="65.19" y1="40.98" x2="65.19" y2="20.54"/>
    </g>
    <g>
      <path class="cls-1" d="M87.58,71.8v1.55h-7.38l-2.48-25.17-2.48,25.17h-7.38v-1.55l2.22-1.15,1.11-29.67h-2.27c-.75-.87-.75-3.18-.75-3.18v-19.33c0-1.88.78-2.27,2.18-2.27h4.11l-.92-7.52c0-1.15.47-2.2,1.22-2.96.76-.75,1.81-1.22,2.96-1.22,2.31,0,4.18,1.87,4.18,4.18l-.92,7.52h4.11c1.4,0,2.17.39,2.17,2.27v19.33s0,2.31-.75,3.18h-2.27l1.1,29.67,2.24,1.15Z"/>
      <line class="cls-2" x1="71.19" y1="40.98" x2="71.19" y2="20.54"/>
      <line class="cls-2" x1="84.27" y1="40.98" x2="84.27" y2="20.54"/>
    </g>
    <g>
      <path class="cls-1" d="M33.21,72.26v1.09h-5.18l-1.74-17.68-1.74,17.68h-5.18v-1.09l1.56-.81.78-20.84h-1.59c-.53-.61-.53-2.23-.53-2.23v-13.58c0-1.32.55-1.59,1.53-1.59h2.89l-.65-5.28c0-.81.33-1.55.86-2.08.53-.53,1.27-.86,2.08-.86,1.62,0,2.94,1.31,2.94,2.94l-.65,5.28h2.89c.98,0,1.52.27,1.52,1.59v13.58s0,1.62-.53,2.23h-1.59l.77,20.84,1.57.81Z"/>
      <line class="cls-2" x1="21.69" y1="50.61" x2="21.69" y2="36.25"/>
      <line class="cls-2" x1="30.88" y1="50.61" x2="30.88" y2="36.25"/>
    </g>
  </g>
  <g>
    <g>
      <g>
        <path class="cls-1" d="M44.06,59.17v15.55c0,.35.28.64.64.64h5.15c.72-.45-2.74-2.08-3.73-2.38,0-.59.31-3.03.59-4.42s.85-5.7.93-6.58c.06-.61.05-2,.05-2.81,0-.35-.29-.63-.64-.63h-2.36c-.35,0-.64.28-.64.64Z"/>
        <path class="cls-1" d="M41.94,59.17v15.55c0,.35-.28.64-.64.64h-5.15c-.72-.45,2.74-2.08,3.73-2.38,0-.59-.31-3.03-.59-4.42s-.85-5.7-.93-6.58c-.06-.61-.05-2-.05-2.81,0-.35.29-.63.64-.63h2.36c.35,0,.64.28.64.64Z"/>
      </g>
      <path class="cls-1" d="M49.77,45.95s.73.26,1.37-.62.64-3.19.64-3.19c0,0,0-17.45,0-19.33s-.66-2.27-1.85-2.27c-.79,0-13.85,0-13.85,0-1.19,0-1.85.39-1.85,2.27v19.33s0,2.31.64,3.19,1.37.62,1.37.62"/>
      <path class="cls-2" d="M49.36,25.02c-.09.94-.24,2.37-.36,2.93-.19.87-1,2.8-1.25,4.29s-.06,2.43.44,4.17.75,3.67,1.25,6.04.77,16.07.77,16.07h-7.21s-7.21,0-7.21,0c0,0,.27-13.71.77-16.07s.75-4.3,1.25-6.04.69-2.68.44-4.17-1.06-3.42-1.25-4.29c-.12-.57-.27-2-.36-2.93"/>
      <path class="cls-1" d="M47.77,20.56c0-.89-.96-4.2-1.25-5.25s-.48-4.36-.8-4.85-1.47-1.23-2.72-1.23c-1.25,0-2.4.74-2.72,1.23s-.51,3.8-.8,4.85-1.25,4.35-1.25,5.25c3.18,1.9,6.36,1.9,9.54,0Z"/>
    </g>
    <g>
      <g>
        <path class="cls-1" d="M15.31,60.85v13.93c0,.31.25.57.57.57h4.62c.65-.4-2.46-1.86-3.34-2.14,0-.52.28-2.71.53-3.96s.76-5.1.83-5.9c.05-.55.05-1.79.04-2.52,0-.31-.26-.56-.57-.56h-2.11c-.31,0-.57.25-.57.57Z"/>
        <path class="cls-1" d="M13.41,60.85v13.93c0,.31-.25.57-.57.57h-4.62c-.65-.4,2.46-1.86,3.34-2.14,0-.52-.28-2.71-.53-3.96s-.76-5.1-.83-5.9c-.05-.55-.05-1.79-.04-2.52,0-.31.26-.56.57-.56h2.11c.31,0,.57.25.57.57Z"/>
      </g>
      <path class="cls-1" d="M20.42,49.02s.65.23,1.23-.55.57-2.85.57-2.85c0,0,0-15.63,0-17.31s-.59-2.03-1.65-2.03c-.7,0-12.41,0-12.41,0-1.07,0-1.65.35-1.65,2.03v17.31s0,2.07.57,2.85,1.22.55,1.22.55"/>
      <path class="cls-2" d="M20.06,30.27c-.08.84-.21,2.12-.32,2.63-.17.78-.89,2.51-1.12,3.85s-.06,2.18.39,3.74.67,3.29,1.12,5.41.69,14.4.69,14.4h-6.46s-6.46,0-6.46,0c0,0,.24-12.28.69-14.4s.67-3.85,1.12-5.41.61-2.4.39-3.74-.95-3.07-1.12-3.85c-.11-.51-.24-1.79-.32-2.63"/>
      <path class="cls-1" d="M18.63,26.27c0-.8-.86-3.76-1.12-4.7s-.43-3.91-.72-4.35-1.31-1.1-2.43-1.1c-1.12,0-2.15.66-2.43,1.1s-.46,3.41-.72,4.35-1.12,3.9-1.12,4.7c2.85,1.71,5.7,1.71,8.55,0Z"/>
    </g>
    <g>
      <path class="cls-1" d="M70.51,73.8v1.55h-7.38l-2.48-25.17-2.48,25.17h-7.38v-1.55l2.22-1.15,1.11-29.67h-2.27c-.75-.87-.75-3.18-.75-3.18v-19.33c0-1.88.78-2.27,2.18-2.27h4.11l-.92-7.52c0-1.15.47-2.2,1.22-2.96.76-.75,1.81-1.22,2.96-1.22,2.31,0,4.18,1.87,4.18,4.18l-.92,7.52h4.11c1.4,0,2.17.39,2.17,2.27v19.33s0,2.31-.75,3.18h-2.27l1.1,29.67,2.24,1.15Z"/>
      <line class="cls-2" x1="54.12" y1="42.98" x2="54.12" y2="22.54"/>
      <line class="cls-2" x1="67.19" y1="42.98" x2="67.19" y2="22.54"/>
    </g>
    <g>
      <path class="cls-1" d="M89.58,73.8v1.55h-7.38l-2.48-25.17-2.48,25.17h-7.38v-1.55l2.22-1.15,1.11-29.67h-2.27c-.75-.87-.75-3.18-.75-3.18v-19.33c0-1.88.78-2.27,2.18-2.27h4.11l-.92-7.52c0-1.15.47-2.2,1.22-2.96.76-.75,1.81-1.22,2.96-1.22,2.31,0,4.18,1.87,4.18,4.18l-.92,7.52h4.11c1.4,0,2.17.39,2.17,2.27v19.33s0,2.31-.75,3.18h-2.27l1.1,29.67,2.24,1.15Z"/>
      <line class="cls-2" x1="73.19" y1="42.98" x2="73.19" y2="22.54"/>
      <line class="cls-2" x1="86.27" y1="42.98" x2="86.27" y2="22.54"/>
    </g>
    <g>
      <path class="cls-1" d="M35.21,74.26v1.09h-5.18l-1.74-17.68-1.74,17.68h-5.18v-1.09l1.56-.81.78-20.84h-1.59c-.53-.61-.53-2.23-.53-2.23v-13.58c0-1.32.55-1.59,1.53-1.59h2.89l-.65-5.28c0-.81.33-1.55.86-2.08.53-.53,1.27-.86,2.08-.86,1.62,0,2.94,1.31,2.94,2.94l-.65,5.28h2.89c.98,0,1.52.27,1.52,1.59v13.58s0,1.62-.53,2.23h-1.59l.77,20.84,1.57.81Z"/>
      <line class="cls-2" x1="23.69" y1="52.61" x2="23.69" y2="38.25"/>
      <line class="cls-2" x1="32.88" y1="52.61" x2="32.88" y2="38.25"/>
    </g>
  </g>
</svg>