<?xml version="1.0" encoding="UTF-8"?>
<svg id="Layer_1" data-name="Layer 1" xmlns="http://www.w3.org/2000/svg" viewBox="0 0 84.08 70.3">
  <defs>
    <style>
      .cls-1, .cls-2 {
        stroke: #901d55;
        stroke-linejoin: round;
      }

      .cls-3 {
        fill: #eaeae4;
      }

      .cls-2 {
        stroke-linecap: round;
      }
    </style>
  </defs>
  <g>
    <g>
      <path class="cls-1" d="M32.23,53.17v15.55c0,.35.28.64.64.64h5.15c.72-.45-2.74-2.08-3.73-2.38,0-.59.31-3.03.59-4.42s.85-5.7.93-6.58c.06-.61.05-2,.05-2.81,0-.35-.29-.63-.64-.63h-2.36c-.35,0-.64.28-.64.64Z"/>
      <path class="cls-1" d="M30.12,53.17v15.55c0,.35-.28.64-.64.64h-5.15c-.72-.45,2.74-2.08,3.73-2.38,0-.59-.31-3.03-.59-4.42s-.85-5.7-.93-6.58c-.06-.61-.05-2-.05-2.81,0-.35.29-.63.64-.63h2.36c.35,0,.64.28.64.64Z"/>
    </g>
    <path class="cls-1" d="M37.94,39.95s.73.26,1.37-.62.64-3.19.64-3.19c0,0,0-17.45,0-19.33s-.66-2.27-1.85-2.27c-.79,0-13.85,0-13.85,0-1.19,0-1.85.39-1.85,2.27v19.33s0,2.31.64,3.19,1.37.62,1.37.62"/>
    <path class="cls-2" d="M37.53,19.02c-.09.94-.24,2.37-.36,2.93-.19.87-1,2.8-1.25,4.29s-.06,2.43.44,4.17.75,3.67,1.25,6.04.77,16.07.77,16.07h-7.21s-7.21,0-7.21,0c0,0,.27-13.71.77-16.07s.75-4.3,1.25-6.04.69-2.68.44-4.17-1.06-3.42-1.25-4.29c-.12-.57-.27-2-.36-2.93"/>
    <path class="cls-1" d="M35.94,14.56c0-.89-.96-4.2-1.25-5.25s-.48-4.36-.8-4.85-1.47-1.23-2.72-1.23c-1.25,0-2.4.74-2.72,1.23s-.51,3.8-.8,4.85-1.25,4.35-1.25,5.25c3.18,1.9,6.36,1.9,9.54,0Z"/>
  </g>
  <g>
    <path class="cls-1" d="M61.68,67.8v1.55h-7.38l-2.48-25.17-2.48,25.17h-7.38v-1.55l2.22-1.15,1.11-29.67h-2.27c-.75-.87-.75-3.18-.75-3.18V14.47c0-1.88.78-2.27,2.18-2.27h4.11l-.92-7.52c0-1.15.47-2.2,1.22-2.96.76-.75,1.81-1.22,2.96-1.22,2.31,0,4.18,1.87,4.18,4.18l-.92,7.52h4.11c1.4,0,2.17.39,2.17,2.27v19.33s0,2.31-.75,3.18h-2.27l1.1,29.67,2.24,1.15Z"/>
    <line class="cls-2" x1="45.29" y1="36.98" x2="45.29" y2="16.54"/>
    <line class="cls-2" x1="58.37" y1="36.98" x2="58.37" y2="16.54"/>
  </g>
  <g>
    <rect class="cls-3" x="53.83" y="15.17" width="1" height="4"/>
    <rect class="cls-3" x="53.83" y="15.17" width="1" height="4" transform="translate(71.5 -37.16) rotate(90)"/>
  </g>
  <g>
    <rect class="cls-3" x="32.67" y="17.67" width="1" height="4"/>
    <rect class="cls-3" x="32.67" y="17.67" width="1" height="4" transform="translate(52.84 -13.5) rotate(90)"/>
  </g>
</svg>